<mxfile host="app.diagrams.net" agent="Mozilla/5.0 (Windows NT 10.0; Win64; x64) AppleWebKit/537.36 (KHTML, like Gecko) Chrome/136.0.0.0 Safari/537.36" version="27.1.1">
  <diagram name="PÃ¡gina-1" id="G7Nd_YNKY4YT5ggkGRCw">
    <mxGraphModel dx="815" dy="513" grid="1" gridSize="10" guides="1" tooltips="1" connect="1" arrows="1" fold="1" page="1" pageScale="1" pageWidth="827" pageHeight="1169" math="0" shadow="0">
      <root>
        <mxCell id="0" />
        <mxCell id="1" parent="0" />
        <mxCell id="cKh62PB0JI-ECD9SZ3ny-1" value="" style="rounded=0;whiteSpace=wrap;html=1;fillColor=#f5f5f5;fontColor=#333333;strokeColor=#666666;" vertex="1" parent="1">
          <mxGeometry x="170" y="170" width="570" height="100" as="geometry" />
        </mxCell>
        <mxCell id="cKh62PB0JI-ECD9SZ3ny-2" value="Hardware Layer" style="text;html=1;align=center;verticalAlign=middle;whiteSpace=wrap;rounded=0;" vertex="1" parent="1">
          <mxGeometry x="385" y="170" width="110" height="30" as="geometry" />
        </mxCell>
        <mxCell id="cKh62PB0JI-ECD9SZ3ny-3" value="RC Receiver" style="rounded=0;whiteSpace=wrap;html=1;" vertex="1" parent="1">
          <mxGeometry x="180" y="200" width="110" height="40" as="geometry" />
        </mxCell>
        <mxCell id="cKh62PB0JI-ECD9SZ3ny-4" value="x5 VL53L0X" style="rounded=0;whiteSpace=wrap;html=1;" vertex="1" parent="1">
          <mxGeometry x="330" y="200" width="110" height="40" as="geometry" />
        </mxCell>
        <mxCell id="cKh62PB0JI-ECD9SZ3ny-5" value="MPU 6050" style="rounded=0;whiteSpace=wrap;html=1;" vertex="1" parent="1">
          <mxGeometry x="480" y="200" width="110" height="40" as="geometry" />
        </mxCell>
        <mxCell id="cKh62PB0JI-ECD9SZ3ny-7" value="" style="rounded=0;whiteSpace=wrap;html=1;fillColor=#f5f5f5;fontColor=#333333;strokeColor=#666666;" vertex="1" parent="1">
          <mxGeometry x="170" y="320" width="570" height="100" as="geometry" />
        </mxCell>
        <mxCell id="cKh62PB0JI-ECD9SZ3ny-22" style="edgeStyle=orthogonalEdgeStyle;rounded=0;orthogonalLoop=1;jettySize=auto;html=1;entryX=0.5;entryY=0;entryDx=0;entryDy=0;" edge="1" parent="1" source="cKh62PB0JI-ECD9SZ3ny-6" target="cKh62PB0JI-ECD9SZ3ny-12">
          <mxGeometry relative="1" as="geometry" />
        </mxCell>
        <mxCell id="cKh62PB0JI-ECD9SZ3ny-6" value="WiFi" style="rounded=0;whiteSpace=wrap;html=1;" vertex="1" parent="1">
          <mxGeometry x="620" y="200" width="110" height="40" as="geometry" />
        </mxCell>
        <mxCell id="cKh62PB0JI-ECD9SZ3ny-8" value="Driver Layer" style="text;html=1;align=center;verticalAlign=middle;whiteSpace=wrap;rounded=0;" vertex="1" parent="1">
          <mxGeometry x="385" y="320" width="110" height="30" as="geometry" />
        </mxCell>
        <mxCell id="cKh62PB0JI-ECD9SZ3ny-9" value="RcDriver" style="rounded=0;whiteSpace=wrap;html=1;" vertex="1" parent="1">
          <mxGeometry x="180" y="350" width="110" height="40" as="geometry" />
        </mxCell>
        <mxCell id="cKh62PB0JI-ECD9SZ3ny-10" value="DistanceDriver" style="rounded=0;whiteSpace=wrap;html=1;" vertex="1" parent="1">
          <mxGeometry x="330" y="350" width="110" height="40" as="geometry" />
        </mxCell>
        <mxCell id="cKh62PB0JI-ECD9SZ3ny-11" value="IMUDriver" style="rounded=0;whiteSpace=wrap;html=1;" vertex="1" parent="1">
          <mxGeometry x="480" y="350" width="110" height="40" as="geometry" />
        </mxCell>
        <mxCell id="cKh62PB0JI-ECD9SZ3ny-12" value="AsyncWebServer" style="rounded=0;whiteSpace=wrap;html=1;" vertex="1" parent="1">
          <mxGeometry x="620" y="350" width="110" height="40" as="geometry" />
        </mxCell>
        <mxCell id="cKh62PB0JI-ECD9SZ3ny-13" value="" style="rounded=0;whiteSpace=wrap;html=1;fillColor=#f5f5f5;fontColor=#333333;strokeColor=#666666;" vertex="1" parent="1">
          <mxGeometry x="170" y="453.18" width="570" height="100" as="geometry" />
        </mxCell>
        <mxCell id="cKh62PB0JI-ECD9SZ3ny-14" value="Task Layer" style="text;html=1;align=center;verticalAlign=middle;whiteSpace=wrap;rounded=0;" vertex="1" parent="1">
          <mxGeometry x="385" y="450" width="110" height="30" as="geometry" />
        </mxCell>
        <mxCell id="cKh62PB0JI-ECD9SZ3ny-40" style="edgeStyle=orthogonalEdgeStyle;rounded=0;orthogonalLoop=1;jettySize=auto;html=1;startArrow=classic;startFill=1;curved=1;" edge="1" parent="1" source="cKh62PB0JI-ECD9SZ3ny-15" target="cKh62PB0JI-ECD9SZ3ny-38">
          <mxGeometry relative="1" as="geometry" />
        </mxCell>
        <mxCell id="cKh62PB0JI-ECD9SZ3ny-15" value="rcUpdateTask" style="rounded=0;whiteSpace=wrap;html=1;" vertex="1" parent="1">
          <mxGeometry x="180" y="480" width="110" height="40" as="geometry" />
        </mxCell>
        <mxCell id="cKh62PB0JI-ECD9SZ3ny-16" value="distanceMonitorTask" style="rounded=0;whiteSpace=wrap;html=1;" vertex="1" parent="1">
          <mxGeometry x="325" y="478.18" width="120" height="43.64" as="geometry" />
        </mxCell>
        <mxCell id="cKh62PB0JI-ECD9SZ3ny-17" value="orientationMonitorTask" style="rounded=0;whiteSpace=wrap;html=1;" vertex="1" parent="1">
          <mxGeometry x="466.25" y="478.18" width="137.5" height="50" as="geometry" />
        </mxCell>
        <mxCell id="cKh62PB0JI-ECD9SZ3ny-18" value="webUpdateTask" style="rounded=0;whiteSpace=wrap;html=1;" vertex="1" parent="1">
          <mxGeometry x="620" y="480" width="110" height="40" as="geometry" />
        </mxCell>
        <mxCell id="cKh62PB0JI-ECD9SZ3ny-21" style="edgeStyle=orthogonalEdgeStyle;rounded=0;orthogonalLoop=1;jettySize=auto;html=1;" edge="1" parent="1" source="cKh62PB0JI-ECD9SZ3ny-5" target="cKh62PB0JI-ECD9SZ3ny-11">
          <mxGeometry relative="1" as="geometry" />
        </mxCell>
        <mxCell id="cKh62PB0JI-ECD9SZ3ny-19" style="edgeStyle=orthogonalEdgeStyle;rounded=0;orthogonalLoop=1;jettySize=auto;html=1;entryX=0.5;entryY=0;entryDx=0;entryDy=0;" edge="1" parent="1" source="cKh62PB0JI-ECD9SZ3ny-3" target="cKh62PB0JI-ECD9SZ3ny-9">
          <mxGeometry relative="1" as="geometry" />
        </mxCell>
        <mxCell id="cKh62PB0JI-ECD9SZ3ny-27" value="Serial" style="edgeLabel;html=1;align=center;verticalAlign=middle;resizable=0;points=[];" vertex="1" connectable="0" parent="cKh62PB0JI-ECD9SZ3ny-19">
          <mxGeometry x="-0.0727" relative="1" as="geometry">
            <mxPoint as="offset" />
          </mxGeometry>
        </mxCell>
        <mxCell id="cKh62PB0JI-ECD9SZ3ny-20" style="edgeStyle=orthogonalEdgeStyle;rounded=0;orthogonalLoop=1;jettySize=auto;html=1;entryX=0.5;entryY=0;entryDx=0;entryDy=0;" edge="1" parent="1" source="cKh62PB0JI-ECD9SZ3ny-4" target="cKh62PB0JI-ECD9SZ3ny-10">
          <mxGeometry relative="1" as="geometry" />
        </mxCell>
        <mxCell id="cKh62PB0JI-ECD9SZ3ny-28" value="I2C Bus" style="edgeLabel;html=1;align=center;verticalAlign=middle;resizable=0;points=[];" vertex="1" connectable="0" parent="1">
          <mxGeometry x="385" y="290" as="geometry" />
        </mxCell>
        <mxCell id="cKh62PB0JI-ECD9SZ3ny-29" value="I2C Bus" style="edgeLabel;html=1;align=center;verticalAlign=middle;resizable=0;points=[];" vertex="1" connectable="0" parent="1">
          <mxGeometry x="535" y="290" as="geometry" />
        </mxCell>
        <mxCell id="cKh62PB0JI-ECD9SZ3ny-30" value="I2C Bus" style="edgeLabel;html=1;align=center;verticalAlign=middle;resizable=0;points=[];" vertex="1" connectable="0" parent="1">
          <mxGeometry x="675" y="290" as="geometry">
            <mxPoint x="2" as="offset" />
          </mxGeometry>
        </mxCell>
        <mxCell id="cKh62PB0JI-ECD9SZ3ny-31" style="edgeStyle=orthogonalEdgeStyle;rounded=0;orthogonalLoop=1;jettySize=auto;html=1;entryX=0.5;entryY=0;entryDx=0;entryDy=0;" edge="1" parent="1" source="cKh62PB0JI-ECD9SZ3ny-9" target="cKh62PB0JI-ECD9SZ3ny-15">
          <mxGeometry relative="1" as="geometry" />
        </mxCell>
        <mxCell id="cKh62PB0JI-ECD9SZ3ny-32" style="edgeStyle=orthogonalEdgeStyle;rounded=0;orthogonalLoop=1;jettySize=auto;html=1;entryX=0.5;entryY=0;entryDx=0;entryDy=0;" edge="1" parent="1">
          <mxGeometry relative="1" as="geometry">
            <mxPoint x="384.76" y="390" as="sourcePoint" />
            <mxPoint x="384.76" y="480" as="targetPoint" />
          </mxGeometry>
        </mxCell>
        <mxCell id="cKh62PB0JI-ECD9SZ3ny-33" style="edgeStyle=orthogonalEdgeStyle;rounded=0;orthogonalLoop=1;jettySize=auto;html=1;entryX=0.5;entryY=0;entryDx=0;entryDy=0;" edge="1" parent="1">
          <mxGeometry relative="1" as="geometry">
            <mxPoint x="535" y="390" as="sourcePoint" />
            <mxPoint x="535" y="480" as="targetPoint" />
          </mxGeometry>
        </mxCell>
        <mxCell id="cKh62PB0JI-ECD9SZ3ny-34" style="edgeStyle=orthogonalEdgeStyle;rounded=0;orthogonalLoop=1;jettySize=auto;html=1;entryX=0.5;entryY=0;entryDx=0;entryDy=0;" edge="1" parent="1">
          <mxGeometry relative="1" as="geometry">
            <mxPoint x="675" y="390" as="sourcePoint" />
            <mxPoint x="675" y="480" as="targetPoint" />
          </mxGeometry>
        </mxCell>
        <mxCell id="cKh62PB0JI-ECD9SZ3ny-36" value="" style="rounded=0;whiteSpace=wrap;html=1;fillColor=#f5f5f5;fontColor=#333333;strokeColor=#666666;" vertex="1" parent="1">
          <mxGeometry x="170" y="585" width="570" height="100" as="geometry" />
        </mxCell>
        <mxCell id="cKh62PB0JI-ECD9SZ3ny-37" value="DataLayer" style="text;html=1;align=center;verticalAlign=middle;whiteSpace=wrap;rounded=0;" vertex="1" parent="1">
          <mxGeometry x="385" y="585" width="110" height="30" as="geometry" />
        </mxCell>
        <mxCell id="cKh62PB0JI-ECD9SZ3ny-38" value="rcData" style="rounded=0;whiteSpace=wrap;html=1;" vertex="1" parent="1">
          <mxGeometry x="220" y="615" width="110" height="40" as="geometry" />
        </mxCell>
        <mxCell id="cKh62PB0JI-ECD9SZ3ny-39" value="masterData" style="rounded=0;whiteSpace=wrap;html=1;" vertex="1" parent="1">
          <mxGeometry x="510" y="615" width="110" height="40" as="geometry" />
        </mxCell>
      </root>
    </mxGraphModel>
  </diagram>
</mxfile>
